<svg xmlns="http://www.w3.org/2000/svg" width="104" height="81" viewBox="0 0 104 81">
    <g fill="#9B977E" fill-rule="nonzero">
        <path d="M4.875 67.505c0 .908.731 1.62 1.625 1.62h5.362a11.39 11.39 0 0 1 3.38-5.248c2.048-1.799 4.713-2.77 7.508-2.77s5.46.971 7.491 2.737a11.471 11.471 0 0 1 3.397 5.281h38.35a11.39 11.39 0 0 1 3.38-5.248c2.047-1.799 4.712-2.77 7.507-2.77s5.46.971 7.491 2.737a11.471 11.471 0 0 1 3.397 5.281h.487c2.6 0 5.038-1.004 6.906-2.835 1.837-1.846 2.828-6.447 2.844-9.04H4.875v10.255zM95.55 17.852a7.224 7.224 0 0 0-6.646-4.374H71.5v17.82h29.835L95.55 17.852zM102.798 34.684l-.065-.146H71.5v19.878h32.435c.049-.146.065-.292.065-.438V40.516a14.64 14.64 0 0 0-1.202-5.832zM81.25 41.018h-4.875a1.617 1.617 0 0 1-1.625-1.62c0-.89.731-1.62 1.625-1.62h4.875c.894 0 1.625.73 1.625 1.62 0 .908-.731 1.62-1.625 1.62z"/>
        <path d="M88.237 66.29c-2.99-2.592-7.718-2.608-10.724.017a8.068 8.068 0 0 0-2.763 6.075c0 4.455 3.64 8.1 8.125 8.1 4.485 0 8.125-3.645 8.125-8.1a8.128 8.128 0 0 0-2.763-6.092zM28.112 66.29c-2.99-2.592-7.718-2.608-10.724.017a8.068 8.068 0 0 0-2.763 6.075c0 4.455 3.64 8.1 8.125 8.1 4.485 0 8.125-3.645 8.125-8.1a8.128 8.128 0 0 0-2.763-6.092zM66.625.518h-65C.731.518 0 1.248 0 2.138v52.278h68.185c.049-.146.065-.292.065-.438V2.138c0-.89-.731-1.62-1.625-1.62zm-55.25 46.98c0 .908-.731 1.62-1.625 1.62a1.617 1.617 0 0 1-1.625-1.62V8.618c0-.89.731-1.62 1.625-1.62s1.625.73 1.625 1.62v38.88zm40.625 0c0 .908-.731 1.62-1.625 1.62a1.617 1.617 0 0 1-1.625-1.62v-9.266a17.76 17.76 0 0 1-4.875 4.714v4.552c0 .908-.731 1.62-1.625 1.62a1.617 1.617 0 0 1-1.625-1.62v-2.85c-1.56.599-3.201.971-4.875 1.133v1.717c0 .908-.731 1.62-1.625 1.62a1.617 1.617 0 0 1-1.625-1.62v-1.717a18.567 18.567 0 0 1-4.875-1.134v2.851c0 .908-.731 1.62-1.625 1.62a1.617 1.617 0 0 1-1.625-1.62v-4.552a17.99 17.99 0 0 1-4.875-4.714v9.266c0 .908-.731 1.62-1.625 1.62a1.617 1.617 0 0 1-1.625-1.62V8.618c0-.89.731-1.62 1.625-1.62s1.625.73 1.625 1.62v9.283a17.813 17.813 0 0 1 4.875-4.73V8.618c0-.89.731-1.62 1.625-1.62s1.625.73 1.625 1.62v2.884c1.56-.6 3.218-.956 4.875-1.118V8.618c0-.89.731-1.62 1.625-1.62s1.625.73 1.625 1.62v1.766c1.674.162 3.315.519 4.875 1.118V8.618c0-.89.731-1.62 1.625-1.62s1.625.73 1.625 1.62v4.553a17.588 17.588 0 0 1 4.875 4.73V8.618c0-.89.731-1.62 1.625-1.62S52 7.728 52 8.618v38.88zm8.125 0c0 .908-.731 1.62-1.625 1.62a1.617 1.617 0 0 1-1.625-1.62V8.618c0-.89.731-1.62 1.625-1.62s1.625.73 1.625 1.62v38.88z"/>
        <path d="M41.438 15.439a14.627 14.627 0 0 0-7.313-1.96c-2.567 0-5.086.68-7.313 1.96-4.5 2.608-7.312 7.435-7.312 12.62 0 5.2 2.811 10.027 7.313 12.635 4.436 2.56 10.188 2.56 14.625 0a14.618 14.618 0 0 0 7.312-12.636c0-5.184-2.795-10.011-7.313-12.62zm.487 18.451a1.648 1.648 0 0 1-1.3.648c-.341 0-.682-.097-.975-.324l-6.5-4.86c-.032-.016-.049-.048-.065-.08-.098-.065-.162-.163-.227-.244a1.056 1.056 0 0 1-.163-.243 1.03 1.03 0 0 1-.098-.291c-.032-.114-.064-.21-.064-.324-.017-.033-.033-.065-.033-.114v-9.72c0-.89.731-1.62 1.625-1.62s1.625.73 1.625 1.62v8.91l5.85 4.374c.715.535.861 1.556.325 2.268z"/>
    </g>
</svg>
