<svg xmlns="http://www.w3.org/2000/svg" width="99" height="107" viewBox="0 0 99 107">
    <g fill="none" fill-rule="nonzero">
        <path fill="#9B977E" d="M86.198 21.822l.171-.17V.022h-57.01L.853 25.909v81.07H86.37V61.333c-1.536 2.214-3.072 4.258-4.609 6.472-.512.681-1.024 1.192-1.536 1.533v31.508H6.828V29.145h24.92l.342-23.162h48.134v18.564c1.707-1.533 3.755-2.384 5.974-2.725zm-59.912 1.533H12.12L26.457 10.24l-.17 13.114z"/>
        <path fill="#9B977E" d="M97.464 37.15c-.854-.681-1.878-.51-2.56.51-.854 1.363.17 0-.683 1.363-.512-.34-1.195-.68-1.707-1.192.17-.17.341-.51.512-.681 1.536-2.044 1.877-4.428 1.365-6.983-.17-.51 0-1.192.342-1.703.683-1.192 1.365-2.214 2.048-3.406 1.024-1.703 1.024-2.725-.341-4.088 0 0-.683-.51-.854-.68-.17-.171-1.024-.512-1.024-.512-1.536-.681-2.39-.34-3.755 1.022-.854 1.022-1.536 2.214-2.56 3.236-.342.34-.854.681-1.537.851-2.56.341-4.608 1.533-6.144 3.577C69.3 44.474 58.034 60.313 46.598 76.322c-.341.34-.682.851-.512 1.192.342 1.703-.683 3.236-1.195 4.769-.853 2.555-1.707 4.939-2.39 7.494-.17.68 0 1.703 0 2.554 0 .34-.17.681-.17.852 0 .17-.17.17-.17.34l-.513.682c-.512.51-.341 1.362.342 1.873.17.17.17.17.341.17.512.17 1.195 0 1.536-.51l.683-.852c0-.17.17-.17.17-.34.171-.171.342-.341.683-.341.854-.34 1.707-.34 2.39-.852 2.22-1.533 4.267-3.236 6.316-4.769 1.365-1.022 2.39-2.384 4.096-2.554.342 0 .683-.511 1.024-.852C69.471 70.872 79.712 56.566 89.783 42.09c.512.34 1.195.852 1.707 1.192-1.707 2.385-3.243 4.599-4.95 6.813-3.243 4.768-6.657 9.367-9.9 14.136-.512.68-.854 1.532-.171 2.214.683.851 2.219 1.362 3.243-.17C84.15 59.801 88.76 53.5 93.197 47.027c2.219-3.236 2.56-3.747 4.95-6.983.34-1.192.17-2.043-.683-2.895zm-11.778 2.044L58.717 76.322c-1.024 1.192-2.901 1.362-3.926.681-1.194-1.022-1.536-2.725-.682-3.917l27.14-37.128c.853-1.192 2.73-1.533 3.925-.681 1.195.851 1.536 2.554.512 3.917zM68.959 39.534c-.512.682-1.025 1.533-1.537 2.214h-54.45c-.682 0-1.194-.51-1.194-1.192 0-.681.512-1.192 1.194-1.192H68.96v.17zM61.96 49.072c-.512.681-1.024 1.533-1.536 2.214H12.972c-.682 0-1.194-.511-1.194-1.192 0-.681.512-1.192 1.194-1.192H61.96v.17zM55.133 58.78c-.512.68-1.024 1.532-1.536 2.214H12.972c-.682 0-1.194-.511-1.194-1.192 0-.682.512-1.193 1.194-1.193h42.16v.17zM48.305 68.317c-.512.681-1.024 1.533-1.536 2.214H12.972c-.682 0-1.194-.51-1.194-1.192 0-.681.512-1.192 1.194-1.192h35.333v.17z"/>
        <path fill="#000" d="M42.16 93.183c0 .17-.17.17-.17.34l.17-.34z"/>
        <path fill="#9B977E" d="M18.947 96.76c-.171 0-.171 0-.342-.17-.341-.171-.512-.682-.341-1.193 0-.17.17-.511.341-.852v-.51c0-.17-.17-.341-.17-.512-.342.682-.854 1.704-1.195 2.555-.171.34-.512.681-.854.511-.341 0-.683-.34-.683-.852-.682-6.812-1.365-9.537-1.877-10.559v10.56c0 .51-.342 1.021-.854 1.021s-.853-.51-.853-1.022V83.816c0-.17 0-.341.17-.511.342-.511.854-.852 1.537-.682 1.024.341 2.219 1.704 3.243 10.049.512-1.022.853-1.363 1.365-1.363.171 0 .342.17.513.17.17.171.512.341.853.852.512-.851 1.195-1.362 2.048-1.362.683 0 1.195.681 1.536 1.362.683-1.192 1.366-2.214 2.39-2.044 1.024.17 1.536 1.533 1.878 4.429h9.729c.512 0 .853.51.853 1.022 0 .51-.34 1.021-.853 1.021H26.969c-.512 0-.853-.34-.853-.851-.171-2.214-.342-3.066-.513-3.406-.34.51-1.024 1.703-1.365 2.895-.17.34-.512.681-.854.681-.34 0-.682-.34-.682-.681-.342-1.703-.683-2.044-.854-2.044-.341.17-.853 1.022-1.365 2.214 0 .34-.17.681-.342 1.022-.682 0-1.024.17-1.194.17z"/>
    </g>
</svg>
